# xmcd
#
# Track frame offsets: 
#        150
#        5476
#        23917
#        33209
#        39684
#        60334
#        80142
#        97453
#        112732
#        122886
#        132752
#        151165
#        165250
#        180230
#        185883
#        203102
#        216303
#        228517
#        247137
#
# Disc length: 3519 seconds
#
# Revision: 0
# Processed by: cddbd v1.5.2PL0 Copyright (c) Steve Scherf et al.
# Submitted via: ExactAudioCopyFreeDBPlugin 1.0
#
DISCID=010dbd13
DTITLE=74 Minutes Collectif - Da Tiny Tape
DYEAR=2012
DGENRE=Hip-Hop
TTITLE0=DJ Tiny Tim - Intro
TTITLE1=Bias, ATS, Katsy, Joe Pepsy, AK-47 and Meda - Toujours plus
TTITLE2=Meda, ATS, AK-47, Joe Pepsy and Nabis - Mixtape freestyle
TTITLE3=DJ Tiny Tim - Braque tes oreilles
TTITLE4=ALez, Kesta, Nabis and Sidney - C'est partie
TTITLE5=Esso-L, Kesta, AKS, Diggy Falco and Al Simons - Dexter coherents
TTITLE6=Joe Pepsy aka Poupy, Kasty, and Hazel - Le sort des hommes
TTITLE7=ATS, Joe Papsy, Kasty - Pire que ca
TTITLE8=Nellio - Dans la 4eme Dimension
TTITLE9=Joe Pepsy and AK-47 - La revolte
TTITLE10=Diggy Falco, Al Simons, Joe Pepsy and Kasty - 74 Connexion
TTITLE11=ATS, Joe Pepsy and Nabis - Samedi soir Russe
TTITLE12=AKS - Blaze
TTITLE13=DJ Tiny Tim - Interlude
TTITLE14=Nellio, Joe Pepsy and Muchach - Hip Hop underground
TTITLE15=Hazel - Vise a vie tes reves
TTITLE16=Meda - C'est mon rap
TTITLE17=Kenny Silver, AKS and Kesta - Poussieres d'etoiles 1
TTITLE18=Kesta, Kasty, Joe Pepsy, AK-47 and ATS - Tous se perd
EXTD=
EXTT0=
EXTT1=
EXTT2=
EXTT3=
EXTT4=
EXTT5=
EXTT6=
EXTT7=
EXTT8=
EXTT9=
EXTT10=
EXTT11=
EXTT12=
EXTT13=
EXTT14=
EXTT15=
EXTT16=
EXTT17=
EXTT18=
PLAYORDER=
